# Blender v2.92.0 OBJ File: 'walker.blend'
# www.blender.org
mtllib walker.mtl
o Cube.002
v 1.000000 -1.000000 0.825000
v 1.000000 -1.000000 0.975000
v -1.000000 -1.000000 0.825000
v -1.000000 -1.000000 0.975000
v 1.000000 -1.000000 -0.975000
v 1.000000 -1.000000 -0.825000
v -1.000000 -1.000000 -0.975000
v -1.000000 -1.000000 -0.825000
v 0.825000 -0.500000 0.836480
v 0.825000 0.500000 0.836480
v 0.825000 -0.500000 -0.836480
v 0.825000 0.500000 -0.836480
v 0.975000 -0.500000 0.836480
v 0.975000 0.500000 0.836480
v 0.975000 -0.500000 -0.836480
v 0.975000 0.500000 -0.836480
v -0.975000 -0.500000 0.836480
v -0.975000 0.500000 0.836480
v -0.975000 -0.500000 -0.836480
v -0.975000 0.500000 -0.836480
v -0.825000 -0.500000 0.836480
v -0.825000 0.500000 0.836480
v -0.825000 -0.500000 -0.836480
v -0.825000 0.500000 -0.836480
v 0.592432 1.000000 0.825000
v 1.000000 0.592432 0.825000
v 0.718377 0.980052 0.825000
v 0.831994 0.922162 0.825000
v 0.922161 0.831995 0.825000
v 0.980052 0.718378 0.825000
v 1.000000 0.592432 0.975000
v 0.592432 1.000000 0.975000
v 0.980052 0.718378 0.975000
v 0.922161 0.831995 0.975000
v 0.831994 0.922162 0.975000
v 0.718377 0.980052 0.975000
v -1.000000 0.592432 0.825000
v -0.592432 1.000000 0.825000
v -0.980052 0.718378 0.825000
v -0.922161 0.831995 0.825000
v -0.831994 0.922162 0.825000
v -0.718377 0.980052 0.825000
v -0.592432 1.000000 0.975000
v -1.000000 0.592432 0.975000
v -0.718377 0.980052 0.975000
v -0.831994 0.922162 0.975000
v -0.922161 0.831995 0.975000
v -0.980052 0.718378 0.975000
v 0.592432 1.000000 -0.975000
v 1.000000 0.592432 -0.975000
v 0.718377 0.980052 -0.975000
v 0.831994 0.922162 -0.975000
v 0.922161 0.831995 -0.975000
v 0.980052 0.718378 -0.975000
v 1.000000 0.592432 -0.825000
v 0.592432 1.000000 -0.825000
v 0.980052 0.718378 -0.825000
v 0.922161 0.831995 -0.825000
v 0.831994 0.922162 -0.825000
v 0.718377 0.980052 -0.825000
v -1.000000 0.592432 -0.975000
v -0.592432 1.000000 -0.975000
v -0.980052 0.718378 -0.975000
v -0.922161 0.831995 -0.975000
v -0.831994 0.922162 -0.975000
v -0.718377 0.980052 -0.975000
v -0.592432 1.000000 -0.825000
v -1.000000 0.592432 -0.825000
v -0.718377 0.980052 -0.825000
v -0.831994 0.922162 -0.825000
v -0.922161 0.831995 -0.825000
v -0.980052 0.718378 -0.825000
v 0.000000 1.000000 0.825000
v 0.000000 1.000000 0.975000
v 0.000000 1.000000 -0.975000
v 0.000000 1.000000 -0.825000
vt 0.302907 0.003516
vt 0.338829 0.029615
vt 0.352550 0.071844
vt 0.375817 0.646976
vt 0.349376 0.366270
vt 0.375817 0.366270
vt 0.305134 0.007312
vt 0.337502 0.027832
vt 0.351145 0.067928
vt 0.309649 0.366036
vt 0.336091 0.718585
vt 0.309649 0.718585
vt 0.402258 0.646976
vt 0.375817 0.366270
vt 0.402258 0.366270
vt 0.302907 0.003516
vt 0.338829 0.029615
vt 0.352550 0.071844
vt 0.402258 0.646976
vt 0.375817 0.366270
vt 0.402258 0.366270
vt 0.402258 0.366270
vt 0.375817 0.013721
vt 0.402258 0.013721
vt 0.402258 0.863796
vt 0.375817 0.759365
vt 0.402258 0.759365
vt 0.402258 0.646976
vt 0.375817 0.366270
vt 0.296069 0.548297
vt 0.001168 0.372023
vt 0.296069 0.372023
vt 0.296069 0.548297
vt 0.001168 0.372023
vt 0.296069 0.372023
vt 0.336091 0.366036
vt 0.309649 0.660936
vt 0.309649 0.366036
vt 0.375817 0.646976
vt 0.402258 0.352075
vt 0.402258 0.646976
vt 0.296069 0.548297
vt 0.001168 0.372023
vt 0.296069 0.372023
vt 0.296069 0.548297
vt 0.001168 0.372023
vt 0.296069 0.372023
vt 0.336091 0.366036
vt 0.309649 0.660936
vt 0.309649 0.366036
vt 0.375817 0.646976
vt 0.402258 0.352075
vt 0.402258 0.646976
vt 0.402258 0.736887
vt 0.375817 0.736887
vt 0.402258 0.714409
vt 0.375817 0.714409
vt 0.402258 0.691931
vt 0.375817 0.691931
vt 0.402258 0.669454
vt 0.375817 0.669454
vt 0.349376 0.759365
vt 0.375817 0.736887
vt 0.375817 0.759365
vt 0.349376 0.736887
vt 0.375817 0.714409
vt 0.349376 0.714409
vt 0.375817 0.691931
vt 0.349376 0.691931
vt 0.375817 0.669454
vt 0.349376 0.669454
vt 0.375817 0.759365
vt 0.402258 0.736887
vt 0.402258 0.759365
vt 0.375817 0.736887
vt 0.402258 0.714409
vt 0.375817 0.714409
vt 0.402258 0.691931
vt 0.375817 0.691931
vt 0.402258 0.669454
vt 0.375817 0.669454
vt 0.375817 0.759365
vt 0.402258 0.736887
vt 0.402258 0.759365
vt 0.375817 0.736887
vt 0.402258 0.714409
vt 0.375817 0.714409
vt 0.402258 0.691931
vt 0.375817 0.691931
vt 0.402258 0.669454
vt 0.375817 0.669454
vt 0.302907 0.003516
vt 0.338829 0.029615
vt 0.352550 0.071844
vt 0.402258 0.863795
vt 0.375817 0.863795
vt 0.375817 0.863795
vt 0.349376 0.863796
vt 0.402258 0.863796
vt 0.352550 0.352550
vt 0.000000 0.352550
vt 0.176275 0.000000
vt 0.000000 0.071844
vt 0.003516 0.049643
vt 0.013721 0.029615
vt 0.029615 0.013721
vt 0.049643 0.003516
vt 0.071844 0.000000
vt 0.280706 0.000000
vt 0.322935 0.013721
vt 0.349033 0.049643
vt 0.349376 0.646976
vt 0.352551 0.352552
vt -0.000317 0.351168
vt 0.176634 0.000326
vt -0.000000 0.071844
vt 0.003516 0.049643
vt 0.013721 0.029615
vt 0.029615 0.013721
vt 0.049643 0.003516
vt 0.071844 0.000000
vt 0.283268 0.003891
vt 0.322833 0.016660
vt 0.347485 0.045983
vt 0.336091 0.366036
vt 0.375817 0.646976
vt 0.352550 0.352550
vt 0.000000 0.352550
vt 0.176275 0.000000
vt 0.000000 0.071844
vt 0.003516 0.049643
vt 0.013721 0.029615
vt 0.029615 0.013721
vt 0.049643 0.003516
vt 0.071844 0.000000
vt 0.280706 -0.000000
vt 0.322935 0.013721
vt 0.349033 0.049643
vt 0.375817 0.646976
vt 0.375817 0.646976
vt 0.001168 0.548297
vt 0.001168 0.548297
vt 0.336091 0.660936
vt 0.375817 0.352075
vt 0.001168 0.548297
vt 0.001168 0.548297
vt 0.336091 0.660936
vt 0.375817 0.352075
vt 0.352550 0.352550
vt 0.000000 0.352550
vt 0.176275 0.000000
vt 0.000000 0.071844
vt 0.003516 0.049643
vt 0.013721 0.029615
vt 0.029615 0.013721
vt 0.049643 0.003516
vt 0.071844 0.000000
vt 0.280706 0.000000
vt 0.322935 0.013721
vt 0.349033 0.049643
vt 0.375817 0.863796
vn -0.0000 0.0000 1.0000
vn -1.0000 0.0000 0.0000
vn -0.0000 0.0000 -1.0000
vn 0.0000 -1.0000 0.0000
vn 1.0000 0.0000 0.0000
vn 0.0000 1.0000 0.0000
vn 0.1564 0.9877 0.0000
vn 0.4540 0.8910 0.0000
vn 0.7071 0.7071 0.0000
vn 0.8910 0.4540 0.0000
vn 0.9877 0.1564 0.0000
vn -0.1564 0.9877 0.0000
vn -0.4540 0.8910 0.0000
vn -0.7071 0.7071 0.0000
vn -0.8910 0.4540 0.0000
vn -0.9877 0.1564 0.0000
usemtl Material
s off
f 45/1/1 47/2/1 44/3/1
f 44/4/2 3/5/2 4/6/2
f 51/7/3 53/8/3 50/9/3
f 1/10/4 4/11/4 3/12/4
f 26/13/5 2/14/5 1/15/5
f 69/16/1 71/17/1 68/18/1
f 68/19/2 7/20/2 8/21/2
f 5/22/4 8/23/4 7/24/4
f 73/25/6 32/26/6 25/27/6
f 50/28/5 6/29/5 5/22/5
f 10/30/2 11/31/2 9/32/2
f 16/33/5 13/34/5 15/35/5
f 15/36/4 9/37/4 11/38/4
f 12/39/6 14/40/6 16/41/6
f 18/42/2 19/43/2 17/44/2
f 24/45/5 21/46/5 23/47/5
f 23/48/4 17/49/4 19/50/4
f 20/51/6 22/52/6 24/53/6
f 32/26/7 27/54/7 25/27/7
f 36/55/8 28/56/8 27/54/8
f 35/57/9 29/58/9 28/56/9
f 34/59/10 30/60/10 29/58/10
f 33/61/11 26/13/11 30/60/11
f 38/62/12 45/63/12 43/64/12
f 42/65/13 46/66/13 45/63/13
f 41/67/14 47/68/14 46/66/14
f 40/69/15 48/70/15 47/68/15
f 39/71/16 44/4/16 48/70/16
f 56/72/7 51/73/7 49/74/7
f 60/75/8 52/76/8 51/73/8
f 59/77/9 53/78/9 52/76/9
f 58/79/10 54/80/10 53/78/10
f 57/81/11 50/28/11 54/80/11
f 62/82/12 69/83/12 67/84/12
f 66/85/13 70/86/13 69/83/13
f 65/87/14 71/88/14 70/86/14
f 64/89/15 72/90/15 71/88/15
f 63/91/16 68/19/16 72/90/16
f 27/92/3 29/93/3 26/94/3
f 62/82/6 76/95/6 75/96/6
f 38/62/6 74/97/6 73/98/6
f 75/99/6 56/72/6 49/74/6
f 4/100/1 2/101/1 74/102/1
f 2/101/1 31/103/1 74/102/1
f 31/103/1 33/104/1 34/105/1
f 34/105/1 35/106/1 36/107/1
f 36/107/1 32/108/1 31/103/1
f 32/108/1 74/102/1 31/103/1
f 74/102/1 43/109/1 44/3/1
f 43/109/1 45/1/1 44/3/1
f 45/1/1 46/110/1 47/2/1
f 47/2/1 48/111/1 44/3/1
f 44/3/1 4/100/1 74/102/1
f 31/103/1 34/105/1 36/107/1
f 44/4/2 37/112/2 3/5/2
f 5/113/3 7/114/3 75/115/3
f 7/114/3 61/116/3 75/115/3
f 61/116/3 63/117/3 64/118/3
f 64/118/3 65/119/3 66/120/3
f 66/120/3 62/121/3 61/116/3
f 62/121/3 75/115/3 61/116/3
f 75/115/3 49/122/3 50/9/3
f 49/122/3 51/7/3 50/9/3
f 51/7/3 52/123/3 53/8/3
f 53/8/3 54/124/3 50/9/3
f 50/9/3 5/113/3 75/115/3
f 61/116/3 64/118/3 66/120/3
f 1/10/4 2/125/4 4/11/4
f 26/13/5 31/126/5 2/14/5
f 8/127/1 6/128/1 76/129/1
f 6/128/1 55/130/1 76/129/1
f 55/130/1 57/131/1 58/132/1
f 58/132/1 59/133/1 60/134/1
f 60/134/1 56/135/1 55/130/1
f 56/135/1 76/129/1 55/130/1
f 76/129/1 67/136/1 68/18/1
f 67/136/1 69/16/1 68/18/1
f 69/16/1 70/137/1 71/17/1
f 71/17/1 72/138/1 68/18/1
f 68/18/1 8/127/1 76/129/1
f 55/130/1 58/132/1 60/134/1
f 68/19/2 61/139/2 7/20/2
f 5/22/4 6/29/4 8/23/4
f 73/25/6 74/97/6 32/26/6
f 50/28/5 55/140/5 6/29/5
f 10/30/2 12/141/2 11/31/2
f 16/33/5 14/142/5 13/34/5
f 15/36/4 13/143/4 9/37/4
f 12/39/6 10/144/6 14/40/6
f 18/42/2 20/145/2 19/43/2
f 24/45/5 22/146/5 21/46/5
f 23/48/4 21/147/4 17/49/4
f 20/51/6 18/148/6 22/52/6
f 32/26/7 36/55/7 27/54/7
f 36/55/8 35/57/8 28/56/8
f 35/57/9 34/59/9 29/58/9
f 34/59/10 33/61/10 30/60/10
f 33/61/11 31/126/11 26/13/11
f 38/62/12 42/65/12 45/63/12
f 42/65/13 41/67/13 46/66/13
f 41/67/14 40/69/14 47/68/14
f 40/69/15 39/71/15 48/70/15
f 39/71/16 37/112/16 44/4/16
f 56/72/7 60/75/7 51/73/7
f 60/75/8 59/77/8 52/76/8
f 59/77/9 58/79/9 53/78/9
f 58/79/10 57/81/10 54/80/10
f 57/81/11 55/140/11 50/28/11
f 62/82/12 66/85/12 69/83/12
f 66/85/13 65/87/13 70/86/13
f 65/87/14 64/89/14 71/88/14
f 64/89/15 63/91/15 72/90/15
f 63/91/16 61/139/16 68/19/16
f 1/149/3 3/150/3 73/151/3
f 3/150/3 37/152/3 73/151/3
f 37/152/3 39/153/3 40/154/3
f 40/154/3 41/155/3 42/156/3
f 42/156/3 38/157/3 37/152/3
f 38/157/3 73/151/3 37/152/3
f 73/151/3 25/158/3 26/94/3
f 25/158/3 27/92/3 26/94/3
f 27/92/3 28/159/3 29/93/3
f 29/93/3 30/160/3 26/94/3
f 26/94/3 1/149/3 73/151/3
f 37/152/3 40/154/3 42/156/3
f 62/82/6 67/84/6 76/95/6
f 38/62/6 43/64/6 74/97/6
f 75/99/6 76/161/6 56/72/6
