# Blender v2.78 (sub 0) OBJ File: ''
# www.blender.org
v 0.000000 -0.500000 -0.300000
v 0.000000 0.500000 -0.300000
v 0.300000 -0.500000 0.000000
v 0.300000 0.500000 0.000000
v -0.000000 -0.500000 0.300000
v -0.000000 0.500000 0.300000
v -0.300000 -0.500000 -0.000000
v -0.300000 0.500000 -0.000000
vt 0.8438 0.8802
vt 0.7736 0.7149
vt 0.8438 0.7149
vt 0.7736 0.8802
vt 0.7035 0.7149
vt 0.7035 0.9574
vt 0.7736 0.8872
vt 0.7736 0.9574
vt 0.9840 0.8802
vt 0.9139 0.7149
vt 0.9840 0.7149
vt 0.9139 0.8802
vt 0.8508 0.8872
vt 0.7806 0.9574
vt 0.7806 0.8872
vt 0.7035 0.8802
vt 0.7035 0.8872
vt 0.8508 0.9574
vn 0.7071 0.0000 -0.7071
vn 0.7071 0.0000 0.7071
vn 0.0000 1.0000 0.0000
vn -0.7071 0.0000 0.7071
vn -0.7071 0.0000 -0.7071
vn 0.0000 -1.0000 0.0000
s off
f 2/1/1 3/2/1 1/3/1
f 4/4/2 5/5/2 3/2/2
f 2/6/3 6/7/3 4/8/3
f 6/9/4 7/10/4 5/11/4
f 8/12/5 1/3/5 7/10/5
f 1/13/6 5/14/6 7/15/6
f 2/1/1 4/4/1 3/2/1
f 4/4/2 6/16/2 5/5/2
f 2/6/3 8/17/3 6/7/3
f 6/9/4 8/12/4 7/10/4
f 8/12/5 2/1/5 1/3/5
f 1/13/6 3/18/6 5/14/6
