# Blender v2.78 (sub 0) OBJ File: ''
# www.blender.org
v 0.000000 -0.500000 -0.300000
v 0.000000 0.500000 -0.300000
v 0.176336 -0.500000 -0.242705
v 0.176336 0.500000 -0.242705
v 0.285317 -0.500000 -0.092705
v 0.285317 0.500000 -0.092705
v 0.285317 -0.500000 0.092705
v 0.285317 0.500000 0.092705
v 0.176336 -0.500000 0.242705
v 0.176336 0.500000 0.242705
v -0.000000 -0.500000 0.300000
v -0.000000 0.500000 0.300000
v -0.176336 -0.500000 0.242705
v -0.176336 0.500000 0.242705
v -0.285317 -0.500000 0.092705
v -0.285317 0.500000 0.092705
v -0.285317 -0.500000 -0.092705
v -0.285317 0.500000 -0.092705
v -0.176335 -0.500000 -0.242705
v -0.176335 0.500000 -0.242705
vt 0.5000 0.5383
vt 0.4026 0.0131
vt 0.5000 0.0131
vt 0.4026 0.5383
vt 0.3053 0.0131
vt 0.3053 0.5383
vt 0.2079 0.0131
vt 0.2079 0.5383
vt 0.1105 0.0131
vt 0.1105 0.5383
vt 0.0131 0.0131
vt 0.9869 0.5383
vt 0.8895 0.0131
vt 0.9869 0.0131
vt 0.8895 0.5383
vt 0.7921 0.0131
vt 0.7921 0.5383
vt 0.6947 0.0131
vt 0.4479 0.8643
vt 0.4479 0.5646
vt 0.6241 0.8070
vt 0.6947 0.5383
vt 0.5974 0.0131
vt 0.5974 0.5383
vt 0.0131 0.7708
vt 0.0704 0.5947
vt 0.2556 0.5947
vt 0.0131 0.5383
vt 0.6241 0.6218
vt 0.6542 0.7144
vt 0.5453 0.8643
vt 0.3692 0.8070
vt 0.3391 0.7144
vt 0.3692 0.6218
vt 0.5453 0.5646
vt 0.3128 0.6734
vt 0.3128 0.7708
vt 0.2556 0.8496
vt 0.1630 0.8797
vt 0.0704 0.8496
vt 0.0131 0.6734
vt 0.1630 0.5646
vn 0.3090 0.0000 -0.9511
vn 0.8090 0.0000 -0.5878
vn 1.0000 0.0000 0.0000
vn 0.8090 0.0000 0.5878
vn 0.3090 0.0000 0.9511
vn -0.3090 0.0000 0.9511
vn -0.8090 0.0000 0.5878
vn -1.0000 0.0000 0.0000
vn 0.0000 1.0000 -0.0000
vn -0.8090 0.0000 -0.5878
vn -0.3090 0.0000 -0.9511
vn 0.0000 -1.0000 0.0000
s off
f 2/1/1 3/2/1 1/3/1
f 4/4/2 5/5/2 3/2/2
f 6/6/3 7/7/3 5/5/3
f 8/8/4 9/9/4 7/7/4
f 10/10/5 11/11/5 9/9/5
f 12/12/6 13/13/6 11/14/6
f 14/15/7 15/16/7 13/13/7
f 16/17/8 17/18/8 15/16/8
f 18/19/9 10/20/9 2/21/9
f 18/22/10 19/23/10 17/18/10
f 20/24/11 1/3/11 19/23/11
f 11/25/12 15/26/12 19/27/12
f 2/1/1 4/4/1 3/2/1
f 4/4/2 6/6/2 5/5/2
f 6/6/3 8/8/3 7/7/3
f 8/8/4 10/10/4 9/9/4
f 10/10/5 12/28/5 11/11/5
f 12/12/6 14/15/6 13/13/6
f 14/15/7 16/17/7 15/16/7
f 16/17/8 18/22/8 17/18/8
f 6/29/9 4/30/9 2/21/9
f 2/21/9 20/31/9 18/19/9
f 18/19/9 16/32/9 14/33/9
f 14/33/9 12/34/9 18/19/9
f 10/20/9 8/35/9 6/29/9
f 6/29/9 2/21/9 10/20/9
f 18/19/9 12/34/9 10/20/9
f 18/22/10 20/24/10 19/23/10
f 20/24/11 2/1/11 1/3/11
f 19/27/12 1/36/12 3/37/12
f 3/37/12 5/38/12 7/39/12
f 7/39/12 9/40/12 11/25/12
f 11/25/12 13/41/12 15/26/12
f 15/26/12 17/42/12 19/27/12
f 19/27/12 3/37/12 7/39/12
f 7/39/12 11/25/12 19/27/12
